<?xml version="1.0" standalone="no"?>
<!DOCTYPE svg PUBLIC "-//W3C//DTD SVG 1.1//EN" "http://www.w3.org/Graphics/SVG/1.1/DTD/svg11.dtd" >
<svg xmlns="http://www.w3.org/2000/svg" xmlns:xlink="http://www.w3.org/1999/xlink" version="1.1">
<metadata>
Created by FontForge 20170731 at Sat Feb  8 23:48:29 2003
 By Aleksey,,,
(c) Jakob Fischer at www.pizzadude.dk - DO NOT DISTRIBUTE WITHOUT AUTHOR'S PERMISSION!
</metadata>
<defs>
<font id="Backto1982" horiz-adv-x="922" >
  <font-face 
    font-family="Back to 1982"
    font-weight="400"
    font-stretch="normal"
    units-per-em="1000"
    panose-1="0 0 4 0 0 0 0 0 0 0"
    ascent="800"
    descent="-200"
    x-height="836"
    cap-height="836"
    bbox="21 -271 848 842"
    underline-thickness="20"
    underline-position="-163"
    unicode-range="U+0020-E002"
  />
<missing-glyph horiz-adv-x="500" 
d="M63 0v806h375v-806h-375zM125 63h250v681h-250v-681z" />
    <glyph glyph-name=".notdef" horiz-adv-x="500" 
d="M63 0v806h375v-806h-375zM125 63h250v681h-250v-681z" />
    <glyph glyph-name="glyph1" horiz-adv-x="0" 
 />
    <glyph glyph-name="glyph2" horiz-adv-x="500" 
 />
    <glyph glyph-name="space" unicode=" " horiz-adv-x="500" 
 />
    <glyph glyph-name="exclam" unicode="!" horiz-adv-x="352" 
d="M51 -191v141h141v-141h-141zM51 94v712h141v-712h-141zM272 14v772h-50v50h-201v-772h50v-50h201zM272 -271v201h-50v50h-201v-201h50v-50h201z" />
    <glyph glyph-name="quotedbl" unicode="&#x22;" horiz-adv-x="587" 
d="M51 522v284h141v-284h-141zM337 522v284h141v-284h-141zM558 442v344h-50v50h-201v-344h50v-50h201zM272 442v344h-50v50h-201v-344h50v-50h201z" />
    <glyph glyph-name="numbersign" unicode="#" horiz-adv-x="916" 
d="M478 377h-141v-140h141v140zM620 94v-142h-140v142h-145v-142h-141v142h-143v141h143v145h-143v140h143v143h141v-143h145v143h140v-143h143v-140h-143v-145h143v-141h-143zM843 14v201h-50v50h-93v35h143v200h-50v50h-93v93h-50v50h-200v-143h-35v93h-50v50h-201v-143
h-143v-200h50v-50h93v-35h-143v-201h50v-50h93v-92h50v-50h201v142h35v-92h50v-50h200v142h143zM417 297h31v-30h-31v30z" />
    <glyph glyph-name="dollar" unicode="$" horiz-adv-x="901" 
d="M620 94v-142h-143v-143h-140v143h-145v140h430v145h-430v139l-141 4v140h141v143h145v143h141v-143h142v-141h-423v-143h423v-144h143v-141h-143zM843 14v201h-50v50h-93v94h-50v50h-373v33h423v201h-50v50h-92v93h-50v50h-201v-143h-145v-143h-141v-199l50 -2v-48l91 -3
v-91h50v-50h380v-35h-430v-200h50v-50h95v-93h50v-50h200v143h143v142h143z" />
    <glyph glyph-name="percent" unicode="%" horiz-adv-x="766" 
d="M480 94v141h140v-141h-140zM51 522v141h141v-141h-141zM477 522v-142h-142v-143h-143v-285h-141v283h143v143h143v142h143v286h140v-284h-143zM700 442v344h-50v50h-200v-286h-143v-142h-143v-143h-143v-343h50v-50h201v285h143v143h142v142h143zM272 442v201h-50v50
h-201v-201h50v-50h201zM700 14v201h-50v50h-200v-201h50v-50h200z" />
    <glyph glyph-name="ampersand" unicode="&#x26;" horiz-adv-x="628" 
d="M195 522v-141l140 -4v-140h-140v-145h283v-140h-143v-143h-145v143h-139v283h139v141l-139 4v283h139v143h145v-143h143v-141h-283zM558 442v201h-50v50h-93v93h-50v50h-205v-143h-139v-342l50 -2v-48l89 -3v-33h-139v-343h50v-50h89v-93h50v-50h205v143h143v200h-50v50
h-233v35h140v199l-50 1v49l-90 2v34h283z" />
    <glyph glyph-name="quotesingle" unicode="'" horiz-adv-x="354" 
d="M51 522v284h141v-284h-141zM272 442v344h-50v50h-201v-344h50v-50h201z" />
    <glyph glyph-name="parenleft" unicode="(" horiz-adv-x="615" 
d="M337 -191v143h-143v142h-143v426h143v143h137v143h147v-141h-142v-143h-144v-430h144v-142h142v-141h-141zM558 -271v201h-50v50h-92v92h-50v50h-94v320h144v143h142v201h-50v50h-207v-143h-137v-143h-143v-486h50v-50h93v-92h50v-50h93v-93h50v-50h201z" />
    <glyph glyph-name="parenright" unicode=")" horiz-adv-x="627" 
d="M335 94v-142h-141v-143h-143v141h143v142h143v430h-148v142h-138v142h143v-139l141 -4v-143h143v-426h-143zM558 14v486h-50v50h-93v92l-50 1v49l-91 2v92h-50v50h-203v-202h50v-50h88v-92h50v-50h98v-320h-143v-142h-143v-201h50v-50h203v143h141v142h143z" />
    <glyph glyph-name="asterisk" unicode="*" horiz-adv-x="923" 
d="M622 -48v142h-145v-142h-140v140h-143v-140h-143v140h143v145h-143v141h143v144h-143v141h143v-141h143v141h141v-141h141v141h144v-141h-143v-145h143v-140h-139v-142l139 -3v-140h-141zM843 -128v199l-50 1v49l-89 2v34h139v200h-50v50h-93v35h143v201h-50v50h-204
v-141h-31v91h-50v50h-201v-141h-33v91h-50v50h-203v-201h50v-50h93v-34h-143v-201h50v-50h93v-35h-143v-200h50v-50h203v140h33v-90h50v-50h200v142h35v-92h50v-50h201z" />
    <glyph glyph-name="plus" unicode="+" horiz-adv-x="634" 
d="M335 237v-143h-141v143h-143v141h143v142h141v-143h143v-140h-143zM558 157v200h-50v50h-93v93h-50v50h-201v-142h-143v-201h50v-50h93v-93h50v-50h201v143h143z" />
    <glyph glyph-name="comma" unicode="," horiz-adv-x="352" 
d="M51 -191v283h141v-283h-141zM272 -271v343h-50v50h-201v-343h50v-50h201z" />
    <glyph glyph-name="hyphen" unicode="-" horiz-adv-x="930" 
d="M51 237v141h712v-141h-712zM843 157v201h-50v50h-772v-201h50v-50h772z" />
    <glyph glyph-name="hyphen" unicode="&#x2010;" horiz-adv-x="930" 
d="M51 237v141h712v-141h-712zM843 157v201h-50v50h-772v-201h50v-50h772z" />
    <glyph glyph-name="period" unicode="." horiz-adv-x="347" 
d="M53 -47v141h141v-141h-141zM274 -127v201h-50v50h-201v-201h50v-50h201z" />
    <glyph glyph-name="slash" unicode="/" horiz-adv-x="620" 
d="M335 380v-286h-143v-285h-141v283h143v286h143v285h141v-283h-143zM558 300v343h-50v50h-201v-285h-143v-286h-143v-343h50v-50h201v285h143v286h143z" />
    <glyph glyph-name="zero" unicode="0" horiz-adv-x="924" 
d="M478 663h-284v-569h141v428h143v141zM620 520h-140v-428h-143v-140h283v568zM620 -48v-143h-426v143h-143v711h143v143h426v-143h143v-711h-143zM843 -128v771h-50v50h-93v93h-50v50h-486v-143h-143v-771h50v-50h93v-93h50v-50h486v143h143zM305 124h-31v459h174v-31
h-143v-428zM560 12v428h30v-458h-173v30h143z" />
    <glyph glyph-name="one" unicode="1" horiz-adv-x="626" 
d="M51 -191v141h143v572h-143v141h143v143h141v-856h143v-141h-427zM558 -271v201h-50v50h-93v806h-50v50h-201v-143h-143v-201h50v-50h93v-462h-143v-201h50v-50h487z" />
    <glyph glyph-name="two" unicode="2" horiz-adv-x="899" 
d="M620 380v-143h-428v-287h571v-141h-712v426h143v143h428v287h-430v-143h-141v141h143v143h426v-143h143v-283h-143zM843 300v343h-50v50h-93v93h-50v50h-486v-143h-143v-201h50v-50h201v143h320v-177h-428v-143h-143v-486h50v-50h772v201h-50v50h-521v177h428v143h143z
" />
    <glyph glyph-name="three" unicode="3" horiz-adv-x="918" 
d="M622 380v-145h141v-283h-141v-143h-432v143h-139v140h141v-142h430v287h-285v141h280v286h-422v-142h-144v141h143v143h428v-139l141 -4v-283h-141zM843 300v342l-50 1v49l-91 2v92h-50v50h-488v-143h-143v-201h50v-50h204v142h312v-176h-280v-201h50v-50h235v-177h-320
v92h-50v50h-201v-200h50v-50h89v-93h50v-50h492v143h141v343h-50v50h-91v35h141z" />
    <glyph glyph-name="four" unicode="4" horiz-adv-x="903" 
d="M620 237v-428h-140v428h-429v569h141v-428h288v428h140v-429h143v-140h-143zM843 157v200h-50v50h-93v379h-50v50h-200v-428h-178v378h-50v50h-201v-629h50v-50h379v-378h50v-50h200v428h143z" />
    <glyph glyph-name="five" unicode="5" horiz-adv-x="918" 
d="M620 -48v-143h-430v143h-139v140h141v-142h430v430h-571v426h569v-141h-425v-145h425v-143h143v-425h-143zM843 -128v485h-50v50h-93v93h-50v50h-375v35h425v201h-50v50h-629v-486h50v-50h521v-320h-320v92h-50v50h-201v-200h50v-50h89v-93h50v-50h490v143h143z" />
    <glyph glyph-name="six" unicode="6" horiz-adv-x="918" 
d="M620 377h-426v-425h426v425zM620 -48v-143h-429v143h-140v711h140v143h429v-141h-424v-145h424v-143h143v-425h-143zM843 -128v485h-50v50h-93v93h-50v50h-374v35h424v201h-50v50h-489v-143h-140v-771h50v-50h90v-93h50v-50h489v143h143zM274 297h316v-315h-316v315z" />
    <glyph glyph-name="seven" unicode="7" horiz-adv-x="891" 
d="M620 522v-142h-143v-571h-140v569h143v142h142v145h-571v141h712v-284h-143zM843 442v344h-50v50h-772v-201h50v-50h521v-35h-142v-142h-143v-629h50v-50h200v571h143v142h143z" />
    <glyph glyph-name="eight" unicode="8" horiz-adv-x="917" 
d="M620 235h-426v-283h426v283zM620 663h-426v-283h426v283zM620 -48v-143h-426v143h-143v283h143v145h-143v283h143v143h426v-143h143v-283h-143v-145h143v-283h-143zM843 -128v343h-50v50h-93v35h143v343h-50v50h-93v93h-50v50h-486v-143h-143v-343h50v-50h93v-35h-143
v-343h50v-50h93v-93h50v-50h486v143h143zM274 155h316v-173h-316v173zM274 583h316v-173h-316v173z" />
    <glyph glyph-name="nine" unicode="9" horiz-adv-x="924" 
d="M620 663h-426v-426h426v426zM620 -48v-143h-426v141h428v144h-428v143h-143v426h143v143h426v-143h143v-711h-143zM843 -128v771h-50v50h-93v93h-50v50h-486v-143h-143v-486h50v-50h93v-93h50v-50h378v-34h-428v-201h50v-50h486v143h143zM274 583h316v-316h-316v316z" />
    <glyph glyph-name="colon" unicode=":" horiz-adv-x="347" 
d="M51 94v141h141v-141h-141zM51 380v140h141v-140h-141zM272 14v201h-50v50h-201v-201h50v-50h201zM272 300v200h-50v50h-201v-200h50v-50h201z" />
    <glyph glyph-name="semicolon" unicode=";" horiz-adv-x="349" 
d="M51 -48v283h141v-283h-141zM51 380v140h141v-140h-141zM272 -128v343h-50v50h-201v-343h50v-50h201zM272 300v200h-50v50h-201v-200h50v-50h201z" />
    <glyph glyph-name="less" unicode="&#x3c;" horiz-adv-x="756" 
d="M480 -191v143h-143v142h-143v143h-143v141h143v142h137v143h143v143h146v-141h-141v-143h-143v-142h-144v-145h144v-143h143v-142h141v-141h-140zM700 -271v201h-50v50h-91v92h-50v50h-93v93h-50v50h-94v35h144v142h143v143h141v201h-50v50h-206v-143h-143v-143h-137
v-142h-143v-201h50v-50h93v-93h50v-50h93v-92h50v-50h93v-93h50v-50h200z" />
    <glyph glyph-name="equal" unicode="=" horiz-adv-x="755" 
d="M51 94v141h569v-141h-569zM51 380v140h569v-140h-569zM700 14v201h-50v50h-629v-201h50v-50h629zM700 300v200h-50v50h-629v-200h50v-50h629z" />
    <glyph glyph-name="greater" unicode="&#x3e;" horiz-adv-x="746" 
d="M477 237v-143h-141v-142h-142v-143h-143v141h143v142h143v143h143v145h-149v139l-143 4v141h-137v142h143v-139l142 -4v-139l142 -4v-143h142v-140h-143zM700 157v200h-50v50h-92v92l-50 1v49l-92 2v91l-50 1v49l-92 2v92h-50v50h-203v-202h50v-50h87v-90l50 -2v-48
l93 -3v-91h50v-50h99v-35h-143v-143h-143v-142h-143v-201h50v-50h203v143h142v142h141v143h143z" />
    <glyph glyph-name="question" unicode="?" horiz-adv-x="895" 
d="M337 -191v141h141v-141h-141zM620 380v-143h-143v-143h-140v284h285v287h-430v-143h-141v141h143v143h426v-143h143v-283h-143zM843 300v343h-50v50h-93v93h-50v50h-486v-143h-143v-201h50v-50h201v143h320v-177h-285v-344h50v-50h200v143h143v143h143zM558 -271v201h-50
v50h-201v-201h50v-50h201z" />
    <glyph glyph-name="A" unicode="A" 
d="M620 663h-426v-283h426v283zM619 -191v428h-424v-428h-144v854h139v143h434v-143h139v-854h-144zM843 -271v914h-50v50h-89v93h-50v50h-494v-143h-139v-914h50v-50h204v428h314v-378h50v-50h204zM274 583h316v-173h-316v173z" />
    <glyph glyph-name="B" unicode="B" horiz-adv-x="917" 
d="M620 235h-426v-283h426v283zM620 663h-426v-283h426v283zM620 -48v-143h-569v997h569v-143h143v-283h-143v-145h143v-283h-143zM843 -128v343h-50v50h-93v35h143v343h-50v50h-93v93h-50v50h-629v-1057h50v-50h629v143h143zM274 155h316v-173h-316v173zM274 583h316v-173
h-316v173z" />
    <glyph glyph-name="C" unicode="C" horiz-adv-x="885" 
d="M622 522v143h-430v-715h427v142h144v-140h-143v-143h-426v143h-143v711h143v143h430v-143h139v-141h-141zM843 442v201h-50v50h-89v93h-50v50h-490v-143h-143v-771h50v-50h93v-93h50v-50h486v143h143v200h-50v50h-204v-142h-317v605h320v-93h50v-50h201z" />
    <glyph glyph-name="D" unicode="D" horiz-adv-x="924" 
d="M620 663h-426v-711h426v711zM620 -48v-143h-569v997h569v-143h143v-711h-143zM843 -128v771h-50v50h-93v93h-50v50h-629v-1057h50v-50h629v143h143zM274 583h316v-601h-316v601z" />
    <glyph glyph-name="E" unicode="E" horiz-adv-x="881" 
d="M51 -191v997h712v-141h-571v-288h286v-140h-286v-287h571v-141h-712zM843 -271v201h-50v50h-521v177h286v200h-50v50h-236v178h571v201h-50v50h-772v-1057h50v-50h772z" />
    <glyph glyph-name="F" unicode="F" horiz-adv-x="849" 
d="M192 665v-288h286v-140h-286v-428h-141v997h712v-141h-571zM843 585v201h-50v50h-772v-1057h50v-50h201v428h286v200h-50v50h-236v178h571z" />
    <glyph glyph-name="G" unicode="G" horiz-adv-x="921" 
d="M194 -191v143h-143v711h143v143h430v-143h139v-141h-141v143h-430v-715h427v287h-282v141h426v-569h-569zM843 -271v629h-50v50h-486v-201h50v-50h232v-177h-317v605h320v-93h50v-50h201v201h-50v50h-89v93h-50v50h-490v-143h-143v-771h50v-50h93v-93h50v-50h629z" />
    <glyph glyph-name="H" unicode="H" horiz-adv-x="924" 
d="M622 -191v428h-430v-428h-141v997h141v-428h430v428h141v-997h-141zM843 -271v1057h-50v50h-201v-428h-320v378h-50v50h-201v-1057h50v-50h201v428h320v-378h50v-50h201z" />
    <glyph glyph-name="I" unicode="I" horiz-adv-x="626" 
d="M51 -191v141h143v715h-143v141h427v-141h-143v-715h143v-141h-427zM558 -271v201h-50v50h-93v605h143v201h-50v50h-487v-201h50v-50h93v-605h-143v-201h50v-50h487z" />
    <glyph glyph-name="J" unicode="J" 
d="M620 -48v-143h-426v143h-143v283h141v-285h430v856h141v-854h-143zM843 -128v914h-50v50h-201v-856h-320v235h-50v50h-201v-343h50v-50h93v-93h50v-50h486v143h143z" />
    <glyph glyph-name="K" unicode="K" 
d="M622 -191v285h-142v143h-288v-428h-141v997h141v-428h288v142h139v286h144v-284h-143v-142h-142v-145h146v-143h139v-283h-141zM843 -271v343h-50v50h-89v93h-50v50h-96v35h142v142h143v344h-50v50h-204v-286h-139v-142h-178v378h-50v50h-201v-1057h50v-50h201v428h178
v-93h50v-50h92v-235h50v-50h201z" />
    <glyph glyph-name="L" unicode="L" horiz-adv-x="840" 
d="M51 -191v997h141v-856h571v-141h-712zM843 -271v201h-50v50h-521v806h-50v50h-201v-1057h50v-50h772z" />
    <glyph glyph-name="M" unicode="M" horiz-adv-x="924" 
d="M622 -191v713h-145v-142h-140v142h-145v-713h-141v997h141v-143h143v-143h145v143h142v143h141v-997h-141zM843 -271v1057h-50v50h-201v-143h-142v-143h-35v93h-50v50h-93v93h-50v50h-201v-1057h50v-50h201v713h35v-92h50v-50h200v142h35v-663h50v-50h201z" />
    <glyph glyph-name="N" unicode="N" horiz-adv-x="924" 
d="M622 -191v428h-142v143h-143v142h-145v-713h-141v997h141v-143h143v-143h143v-142h144v428h141v-997h-141zM843 -271v1057h-50v50h-201v-428h-34v92h-50v50h-93v93h-50v50h-93v93h-50v50h-201v-1057h50v-50h201v713h35v-92h50v-50h93v-93h50v-50h92v-378h50v-50h201z" />
    <glyph glyph-name="O" unicode="O" horiz-adv-x="924" 
d="M620 663h-426v-711h426v711zM620 -48v-143h-426v143h-143v711h143v143h426v-143h143v-711h-143zM843 -128v771h-50v50h-93v93h-50v50h-486v-143h-143v-771h50v-50h93v-93h50v-50h486v143h143zM274 583h316v-601h-316v601z" />
    <glyph glyph-name="P" unicode="P" horiz-adv-x="879" 
d="M620 663h-426v-283h426v283zM620 380v-143h-428v-428h-141v997h569v-143h143v-283h-143zM843 300v343h-50v50h-93v93h-50v50h-629v-1057h50v-50h201v428h428v143h143zM274 583h316v-173h-316v173z" />
    <glyph glyph-name="Q" unicode="Q" 
d="M620 663h-426v-711h287v140h-146v145h141v-143h144v569zM194 -191v143h-143v711h143v143h426v-143h143v-854h-569zM843 -271v914h-50v50h-93v93h-50v50h-486v-143h-143v-771h50v-50h93v-93h50v-50h629zM506 267h-201v-205h50v-50h96v-30h-177v601h316v-459h-34v93h-50v50
z" />
    <glyph glyph-name="R" unicode="R" 
d="M620 663h-426v-283h426v283zM622 -191v428h-430v-428h-141v997h569v-143h143v-283h-143v-145h143v-426h-141zM843 -271v486h-50v50h-93v35h143v343h-50v50h-93v93h-50v50h-629v-1057h50v-50h201v428h320v-378h50v-50h201zM274 583h316v-173h-316v173z" />
    <glyph glyph-name="S" unicode="S" horiz-adv-x="912" 
d="M620 -48v-143h-428v143h-141v140h141v-142h430v287h-430v139l-141 4v283h141v143h428v-143h143v-141h-141v143h-425v-286h423v-144h143v-283h-143zM843 -128v343h-50v50h-93v94h-50v50h-373v176h315v-93h50v-50h201v201h-50v50h-93v93h-50v50h-488v-143h-141v-342l50 -2
v-48l91 -3v-91h50v-50h380v-177h-320v92h-50v50h-201v-200h50v-50h91v-93h50v-50h488v143h143z" />
    <glyph glyph-name="T" unicode="T" horiz-adv-x="881" 
d="M478 665v-856h-141v856h-286v141h712v-141h-285zM843 585v201h-50v50h-772v-201h50v-50h236v-806h50v-50h201v856h285z" />
    <glyph glyph-name="U" unicode="U" 
d="M620 -48v-143h-426v143h-143v854h141v-856h430v856h141v-854h-143zM843 -128v914h-50v50h-201v-856h-320v806h-50v50h-201v-914h50v-50h93v-93h50v-50h486v143h143z" />
    <glyph glyph-name="V" unicode="V" 
d="M620 94v-142h-143v-143h-140v143h-143v137l-143 5v712h141v-712h143v-144h145v144h142v712h141v-712h-143zM843 14v772h-50v50h-201v-712h-142v-144h-35v94h-50v50h-93v662h-50v50h-201v-771l50 -2v-48l93 -3v-90h50v-50h93v-93h50v-50h200v143h143v142h143z" />
    <glyph glyph-name="W" unicode="W" horiz-adv-x="929" 
d="M626 -191v144h-144v143h-146v-143h-143v-144h-142v1003h142v-718h145v143h142v-143h146v718h142v-1003h-142zM848 -271v1063h-50v50h-202v-718h-36v93h-50v50h-202v-143h-35v668h-50v50h-202v-1063h50v-50h202v144h143v143h36v-93h50v-50h94v-94h50v-50h202z" />
    <glyph glyph-name="X" unicode="X" 
d="M622 -191v285h-142v143h-145v-145h-141v-283h-143v283h143v143h143v145h-149v137l-137 6v283h143v-284h141v-144h145v144h139v284h144v-284h-143v-142h-142v-145h146v-140l139 -3v-283h-141zM843 -271v342l-50 1v49l-89 2v92h-50v50h-96v35h142v142h143v344h-50v50h-204
v-284h-139v-144h-35v94h-50v50h-91v234h-50v50h-203v-342l50 -2v-48l87 -4v-90h50v-50h99v-35h-143v-143h-143v-343h50v-50h203v283h141v145h35v-93h50v-50h92v-235h50v-50h201z" />
    <glyph glyph-name="Y" unicode="Y" horiz-adv-x="906" 
d="M620 380v-143h-143v-428h-140v428h-143v143h-143v426h141v-428h430v428h141v-426h-143zM843 300v486h-50v50h-201v-428h-320v378h-50v50h-201v-486h50v-50h93v-93h50v-50h93v-378h50v-50h200v428h143v143h143z" />
    <glyph glyph-name="Z" unicode="Z" horiz-adv-x="900" 
d="M620 522v-142h-143v-143h-142v-143h-143v-144h571v-141h-712v283h143v143h143v143h143v142h142v145h-571v141h712v-284h-143zM843 442v344h-50v50h-772v-201h50v-50h521v-35h-142v-142h-143v-143h-143v-143h-143v-343h50v-50h772v201h-50v50h-521v34h143v143h142v143h143
v142h143z" />
    <glyph glyph-name="bracketleft" unicode="[" horiz-adv-x="483" 
d="M51 -191v997h284v-141h-143v-715h143v-141h-284zM415 -271v201h-50v50h-93v605h143v201h-50v50h-344v-1057h50v-50h344z" />
    <glyph glyph-name="backslash" unicode="\" horiz-adv-x="616" 
d="M337 -191v285h-143v286h-143v283h141v-286h143v-285h143v-283h-141zM558 -271v343h-50v50h-93v235h-50v50h-93v236h-50v50h-201v-343h50v-50h93v-236h50v-50h93v-235h50v-50h201z" />
    <glyph glyph-name="bracketright" unicode="]" horiz-adv-x="496" 
d="M51 -191v141h143v715h-143v141h284v-997h-284zM415 -271v1057h-50v50h-344v-201h50v-50h93v-605h-143v-201h50v-50h344z" />
    <glyph glyph-name="a" unicode="a" 
d="M620 663h-426v-283h426v283zM619 -191v428h-424v-428h-144v854h139v143h434v-143h139v-854h-144zM843 -271v914h-50v50h-89v93h-50v50h-494v-143h-139v-914h50v-50h204v428h314v-378h50v-50h204zM274 583h316v-173h-316v173z" />
    <glyph glyph-name="b" unicode="b" horiz-adv-x="917" 
d="M620 235h-426v-283h426v283zM620 663h-426v-283h426v283zM620 -48v-143h-569v997h569v-143h143v-283h-143v-145h143v-283h-143zM843 -128v343h-50v50h-93v35h143v343h-50v50h-93v93h-50v50h-629v-1057h50v-50h629v143h143zM274 155h316v-173h-316v173zM274 583h316v-173
h-316v173z" />
    <glyph glyph-name="c" unicode="c" horiz-adv-x="885" 
d="M622 522v143h-430v-715h427v142h144v-140h-143v-143h-426v143h-143v711h143v143h430v-143h139v-141h-141zM843 442v201h-50v50h-89v93h-50v50h-490v-143h-143v-771h50v-50h93v-93h50v-50h486v143h143v200h-50v50h-204v-142h-317v605h320v-93h50v-50h201z" />
    <glyph glyph-name="d" unicode="d" horiz-adv-x="924" 
d="M620 663h-426v-711h426v711zM620 -48v-143h-569v997h569v-143h143v-711h-143zM843 -128v771h-50v50h-93v93h-50v50h-629v-1057h50v-50h629v143h143zM274 583h316v-601h-316v601z" />
    <glyph glyph-name="e" unicode="e" horiz-adv-x="881" 
d="M51 -191v997h712v-141h-571v-288h286v-140h-286v-287h571v-141h-712zM843 -271v201h-50v50h-521v177h286v200h-50v50h-236v178h571v201h-50v50h-772v-1057h50v-50h772z" />
    <glyph glyph-name="f" unicode="f" horiz-adv-x="849" 
d="M192 665v-288h286v-140h-286v-428h-141v997h712v-141h-571zM843 585v201h-50v50h-772v-1057h50v-50h201v428h286v200h-50v50h-236v178h571z" />
    <glyph glyph-name="g" unicode="g" horiz-adv-x="921" 
d="M194 -191v143h-143v711h143v143h430v-143h139v-141h-141v143h-430v-715h427v287h-282v141h426v-569h-569zM843 -271v629h-50v50h-486v-201h50v-50h232v-177h-317v605h320v-93h50v-50h201v201h-50v50h-89v93h-50v50h-490v-143h-143v-771h50v-50h93v-93h50v-50h629z" />
    <glyph glyph-name="h" unicode="h" horiz-adv-x="924" 
d="M622 -191v428h-430v-428h-141v997h141v-428h430v428h141v-997h-141zM843 -271v1057h-50v50h-201v-428h-320v378h-50v50h-201v-1057h50v-50h201v428h320v-378h50v-50h201z" />
    <glyph glyph-name="i" unicode="i" horiz-adv-x="626" 
d="M51 -191v141h143v715h-143v141h427v-141h-143v-715h143v-141h-427zM558 -271v201h-50v50h-93v605h143v201h-50v50h-487v-201h50v-50h93v-605h-143v-201h50v-50h487z" />
    <glyph glyph-name="j" unicode="j" 
d="M620 -48v-143h-426v143h-143v283h141v-285h430v856h141v-854h-143zM843 -128v914h-50v50h-201v-856h-320v235h-50v50h-201v-343h50v-50h93v-93h50v-50h486v143h143z" />
    <glyph glyph-name="k" unicode="k" 
d="M622 -191v285h-142v143h-288v-428h-141v997h141v-428h288v142h139v286h144v-284h-143v-142h-142v-145h146v-143h139v-283h-141zM843 -271v343h-50v50h-89v93h-50v50h-96v35h142v142h143v344h-50v50h-204v-286h-139v-142h-178v378h-50v50h-201v-1057h50v-50h201v428h178
v-93h50v-50h92v-235h50v-50h201z" />
    <glyph glyph-name="l" unicode="l" horiz-adv-x="840" 
d="M51 -191v997h141v-856h571v-141h-712zM843 -271v201h-50v50h-521v806h-50v50h-201v-1057h50v-50h772z" />
    <glyph glyph-name="m" unicode="m" horiz-adv-x="924" 
d="M622 -191v713h-145v-142h-140v142h-145v-713h-141v997h141v-143h143v-143h145v143h142v143h141v-997h-141zM843 -271v1057h-50v50h-201v-143h-142v-143h-35v93h-50v50h-93v93h-50v50h-201v-1057h50v-50h201v713h35v-92h50v-50h200v142h35v-663h50v-50h201z" />
    <glyph glyph-name="n" unicode="n" horiz-adv-x="924" 
d="M622 -191v428h-142v143h-143v142h-145v-713h-141v997h141v-143h143v-143h143v-142h144v428h141v-997h-141zM843 -271v1057h-50v50h-201v-428h-34v92h-50v50h-93v93h-50v50h-93v93h-50v50h-201v-1057h50v-50h201v713h35v-92h50v-50h93v-93h50v-50h92v-378h50v-50h201z" />
    <glyph glyph-name="o" unicode="o" horiz-adv-x="924" 
d="M620 663h-426v-711h426v711zM620 -48v-143h-426v143h-143v711h143v143h426v-143h143v-711h-143zM843 -128v771h-50v50h-93v93h-50v50h-486v-143h-143v-771h50v-50h93v-93h50v-50h486v143h143zM274 583h316v-601h-316v601z" />
    <glyph glyph-name="p" unicode="p" horiz-adv-x="879" 
d="M620 663h-426v-283h426v283zM620 380v-143h-428v-428h-141v997h569v-143h143v-283h-143zM843 300v343h-50v50h-93v93h-50v50h-629v-1057h50v-50h201v428h428v143h143zM274 583h316v-173h-316v173z" />
    <glyph glyph-name="q" unicode="q" 
d="M620 663h-426v-711h287v140h-146v145h141v-143h144v569zM194 -191v143h-143v711h143v143h426v-143h143v-854h-569zM843 -271v914h-50v50h-93v93h-50v50h-486v-143h-143v-771h50v-50h93v-93h50v-50h629zM506 267h-201v-205h50v-50h96v-30h-177v601h316v-459h-34v93h-50v50
z" />
    <glyph glyph-name="r" unicode="r" 
d="M620 663h-426v-283h426v283zM622 -191v428h-430v-428h-141v997h569v-143h143v-283h-143v-145h143v-426h-141zM843 -271v486h-50v50h-93v35h143v343h-50v50h-93v93h-50v50h-629v-1057h50v-50h201v428h320v-378h50v-50h201zM274 583h316v-173h-316v173z" />
    <glyph glyph-name="s" unicode="s" horiz-adv-x="912" 
d="M620 -48v-143h-428v143h-141v140h141v-142h430v287h-430v139l-141 4v283h141v143h428v-143h143v-141h-141v143h-425v-286h423v-144h143v-283h-143zM843 -128v343h-50v50h-93v94h-50v50h-373v176h315v-93h50v-50h201v201h-50v50h-93v93h-50v50h-488v-143h-141v-342l50 -2
v-48l91 -3v-91h50v-50h380v-177h-320v92h-50v50h-201v-200h50v-50h91v-93h50v-50h488v143h143z" />
    <glyph glyph-name="t" unicode="t" horiz-adv-x="881" 
d="M478 665v-856h-141v856h-286v141h712v-141h-285zM843 585v201h-50v50h-772v-201h50v-50h236v-806h50v-50h201v856h285z" />
    <glyph glyph-name="u" unicode="u" 
d="M620 -48v-143h-426v143h-143v854h141v-856h430v856h141v-854h-143zM843 -128v914h-50v50h-201v-856h-320v806h-50v50h-201v-914h50v-50h93v-93h50v-50h486v143h143z" />
    <glyph glyph-name="v" unicode="v" 
d="M620 94v-142h-143v-143h-140v143h-143v137l-143 5v712h141v-712h143v-144h145v144h142v712h141v-712h-143zM843 14v772h-50v50h-201v-712h-142v-144h-35v94h-50v50h-93v662h-50v50h-201v-771l50 -2v-48l93 -3v-90h50v-50h93v-93h50v-50h200v143h143v142h143z" />
    <glyph glyph-name="w" unicode="w" horiz-adv-x="929" 
d="M626 -191v144h-144v143h-146v-143h-143v-144h-142v1003h142v-718h145v143h142v-143h146v718h142v-1003h-142zM848 -271v1063h-50v50h-202v-718h-36v93h-50v50h-202v-143h-35v668h-50v50h-202v-1063h50v-50h202v144h143v143h36v-93h50v-50h94v-94h50v-50h202z" />
    <glyph glyph-name="x" unicode="x" 
d="M622 -191v285h-142v143h-145v-145h-141v-283h-143v283h143v143h143v145h-149v137l-137 6v283h143v-284h141v-144h145v144h139v284h144v-284h-143v-142h-142v-145h146v-140l139 -3v-283h-141zM843 -271v342l-50 1v49l-89 2v92h-50v50h-96v35h142v142h143v344h-50v50h-204
v-284h-139v-144h-35v94h-50v50h-91v234h-50v50h-203v-342l50 -2v-48l87 -4v-90h50v-50h99v-35h-143v-143h-143v-343h50v-50h203v283h141v145h35v-93h50v-50h92v-235h50v-50h201z" />
    <glyph glyph-name="y" unicode="y" horiz-adv-x="906" 
d="M620 380v-143h-143v-428h-140v428h-143v143h-143v426h141v-428h430v428h141v-426h-143zM843 300v486h-50v50h-201v-428h-320v378h-50v50h-201v-486h50v-50h93v-93h50v-50h93v-378h50v-50h200v428h143v143h143z" />
    <glyph glyph-name="z" unicode="z" horiz-adv-x="900" 
d="M620 522v-142h-143v-143h-142v-143h-143v-144h571v-141h-712v283h143v143h143v143h143v142h142v145h-571v141h712v-284h-143zM843 442v344h-50v50h-772v-201h50v-50h521v-35h-142v-142h-143v-143h-143v-143h-143v-343h50v-50h772v201h-50v50h-521v34h143v143h142v143h143
v142h143z" />
    <glyph glyph-name="cent" unicode="&#xa2;" horiz-adv-x="462" 
 />
    <glyph glyph-name="Chi" unicode="&#x3a7;" horiz-adv-x="1000" 
 />
    <glyph glyph-name=".null" unicode="&#xe001;" horiz-adv-x="462" 
 />
    <glyph glyph-name="nonmarkingreturn" unicode="&#xe002;" horiz-adv-x="462" 
 />
    <glyph glyph-name="glyph92" horiz-adv-x="500" 
 />
    <glyph glyph-name="glyph93" horiz-adv-x="500" 
 />
    <glyph glyph-name="glyph92" horiz-adv-x="500" 
 />
    <glyph glyph-name="glyph93" horiz-adv-x="500" 
 />
    <glyph glyph-name="ch256" horiz-adv-x="462" 
 />
    <glyph glyph-name="ch257" horiz-adv-x="462" 
 />
  </font>
</defs>
</svg>
